<svg width="19" height="21" viewBox="0 0 19 21" fill="none" xmlns="http://www.w3.org/2000/svg">
<path d="M8 17.355C9.77498 17.3546 11.4988 16.7157 12.897 15.54L17.293 20.2669L18.707 18.7464L14.311 14.0195C15.405 12.5159 15.9996 10.6619 16 8.7528C16 4.00975 12.411 0.150574 8 0.150574C3.589 0.150574 0 4.00975 0 8.7528C0 13.4959 3.589 17.355 8 17.355ZM8 2.30113C11.309 2.30113 14 5.1947 14 8.7528C14 12.3109 11.309 15.2045 8 15.2045C4.691 15.2045 2 12.3109 2 8.7528C2 5.1947 4.691 2.30113 8 2.30113Z" fill="#BFBFBF"/>
</svg>
